<svg width="48" height="48" viewBox="0 0 48 48" fill="none" xmlns="http://www.w3.org/2000/svg">
<path d="M24.5 41C15.3765 41 8 33.6235 8 24.5C8 15.3765 15.3765 8 24.5 8C33.6235 8 41 15.3765 41 24.5C41 33.6235 33.6235 41 24.5 41ZM24.5 9.94118C16.4441 9.94118 9.94118 16.4441 9.94118 24.5C9.94118 32.5559 16.4441 39.0588 24.5 39.0588C32.5559 39.0588 39.0588 32.5559 39.0588 24.5C39.0588 16.4441 32.5559 9.94118 24.5 9.94118Z" fill="#EBEDF0"/>
<path d="M24.6126 34L15 24.5L24.6126 15L26 16.3711L17.7748 24.5L26 32.6289L24.6126 34Z" fill="#EBEDF0"/>
<path d="M16 23H32V25H16V23Z" fill="#EBEDF0"/>
</svg>
